<svg width="35" height="35" viewBox="0 0 35 35" fill="none" xmlns="http://www.w3.org/2000/svg">
<path d="M21.1968 4.98823L21.1969 4.98834L28.1931 12.215L21.1968 4.98823ZM21.1968 4.98823C20.717 4.49275 20.1425 4.09877 19.5074 3.82971C18.8724 3.56065 18.1897 3.422 17.5 3.422C16.8103 3.422 16.1276 3.56065 15.4926 3.82971C14.8575 4.09877 14.283 4.49274 13.8032 4.98822C13.8032 4.98823 13.8032 4.98823 13.8032 4.98823L6.80469 12.2157L6.80469 12.2157M21.1968 4.98823L6.80469 12.2157M6.80469 12.2157C6.19683 12.8435 5.78969 13.6372 5.63138 14.4948L5.63105 14.4966M6.80469 12.2157L5.63105 14.4966M5.63105 14.4966C4.7509 19.2968 4.68601 24.2111 5.43911 29.0329C5.43915 29.0332 5.43918 29.0334 5.43921 29.0336L5.69578 30.6809L5.69603 30.6825M5.63105 14.4966L5.69603 30.6825M5.69603 30.6825C5.8923 31.9337 6.97093 32.8542 8.2352 32.8542H13.125C13.7162 32.8542 14.2832 32.6193 14.7013 32.2013C15.1193 31.7832 15.3542 31.2162 15.3542 30.625V21.9167H19.6458V30.625C19.6458 31.2162 19.8807 31.7832 20.2987 32.2013C20.7168 32.6193 21.2838 32.8542 21.875 32.8542H26.7648H26.7653M5.69603 30.6825L26.7653 32.8542M26.7653 32.8542C27.3778 32.854 27.9701 32.6349 28.4354 32.2365C28.9004 31.8382 29.208 31.287 29.3025 30.6821C29.3026 30.6818 29.3026 30.6815 29.3027 30.6813L29.5607 29.0342L29.5608 29.0336M26.7653 32.8542L29.5608 29.0336M29.5608 29.0336C30.3139 24.2115 30.249 19.2971 29.3689 14.4966L29.3688 14.4957M29.5608 29.0336L29.3688 14.4957M29.3688 14.4957C29.2107 13.6365 28.8019 12.8432 28.1939 12.2158L29.3688 14.4957Z" fill="#FAFAFA" stroke="#262626" stroke-width="3"/>
</svg>
