<svg width="35" height="35" viewBox="0 0 35 35" fill="none" xmlns="http://www.w3.org/2000/svg">
<path fill-rule="evenodd" clip-rule="evenodd" d="M10.5992 6.7929C15.1916 6.3937 19.8099 6.3937 24.4023 6.7929L26.6044 6.9854C27.6282 7.07454 28.5921 7.50567 29.3411 8.20936C30.09 8.91304 30.5803 9.84833 30.7329 10.8646C31.3943 15.2635 31.3943 19.7365 30.7329 24.1354C30.6746 24.5204 30.5696 24.8894 30.4238 25.235C30.3275 25.4639 30.03 25.4989 29.8609 25.3152L23.4136 18.2219C23.271 18.0651 23.0859 17.953 22.8809 17.8995C22.6758 17.8459 22.4596 17.853 22.2586 17.92L18.5675 19.1508L13.214 13.1279C13.1149 13.0165 12.9942 12.9265 12.8591 12.8634C12.7241 12.8004 12.5775 12.7656 12.4285 12.7612C12.2795 12.7569 12.1312 12.783 11.9927 12.838C11.8541 12.8931 11.7283 12.9758 11.6229 13.0812L4.45668 20.2475C4.408 20.2975 4.34577 20.3323 4.27763 20.3475C4.20949 20.3627 4.13839 20.3576 4.07306 20.333C4.00773 20.3084 3.951 20.2653 3.90983 20.2089C3.86865 20.1525 3.84483 20.0853 3.84127 20.0156C3.66882 16.9583 3.81151 13.8913 4.2671 10.8631C4.41977 9.84687 4.91004 8.91158 5.65896 8.2079C6.40789 7.50421 7.37187 7.07308 8.39564 6.98395L10.5977 6.79436L10.5992 6.7929ZM20.4167 13.125C20.4167 12.5448 20.6472 11.9884 21.0574 11.5782C21.4676 11.168 22.024 10.9375 22.6042 10.9375C23.1843 10.9375 23.7407 11.168 24.151 11.5782C24.5612 11.9884 24.7917 12.5448 24.7917 13.125C24.7917 13.7051 24.5612 14.2615 24.151 14.6718C23.7407 15.082 23.1843 15.3125 22.6042 15.3125C22.024 15.3125 21.4676 15.082 21.0574 14.6718C20.6472 14.2615 20.4167 13.7051 20.4167 13.125Z" fill="#FAFAFA"/>
<path d="M4.3181 23.4792C4.27862 23.5189 4.24887 23.5672 4.23116 23.6203C4.21345 23.6735 4.20827 23.73 4.21602 23.7854L4.26706 24.1354C4.41973 25.1517 4.91 26.0869 5.65893 26.7906C6.40785 27.4943 7.37183 27.9254 8.3956 28.0146L10.5977 28.2056C15.1914 28.6052 19.8085 28.6052 24.4023 28.2056L26.6044 28.0146C27.2083 27.9623 27.7958 27.7903 28.3325 27.5085C28.5323 27.405 28.5658 27.141 28.4141 26.9748L22.435 20.3977C22.3875 20.3449 22.3256 20.3071 22.257 20.289C22.1883 20.2708 22.1159 20.2732 22.0485 20.2956L18.5748 21.4535C18.3717 21.5214 18.1532 21.5281 17.9463 21.4729C17.7394 21.4176 17.5533 21.3029 17.411 21.1429L12.6058 15.7369C12.5727 15.6997 12.5324 15.6697 12.4873 15.6488C12.4422 15.6278 12.3933 15.6162 12.3435 15.6149C12.2938 15.6135 12.2443 15.6223 12.1982 15.6408C12.152 15.6593 12.11 15.687 12.075 15.7223L4.3181 23.4792Z" fill="#FAFAFA"/>
</svg>
