<svg width="35" height="35" viewBox="0 0 35 35" fill="none" xmlns="http://www.w3.org/2000/svg">
<path d="M31.6206 14.0916L31.6205 14.0911L31.5274 13.5091C31.5274 13.5089 31.5273 13.5087 31.5273 13.5084C31.3535 12.4169 30.7964 11.4231 29.9559 10.7053C29.1152 9.9874 28.0461 9.59269 26.9406 9.59207H26.9398H15.3959C14.8193 8.01255 13.3034 6.88541 11.5238 6.88541H8.18417H8.18386C7.03968 6.88564 5.93523 7.30509 5.07935 8.06447C4.22355 8.82377 3.6756 9.87031 3.53908 11.0062C3.53907 11.0062 3.53907 11.0063 3.53907 11.0063C3.53906 11.0064 3.53905 11.0064 3.53904 11.0065L3.14095 14.3152L3.14091 14.3155C2.70926 17.9097 2.82056 21.5483 3.47109 25.1093L3.47111 25.1095C3.65471 26.114 4.16707 27.0289 4.92758 27.7103C5.68757 28.3912 6.65227 28.8003 7.67006 28.8733L7.67209 28.8735L9.87797 29.0338L9.8798 29.0339C14.953 29.3963 20.047 29.3963 25.1202 29.0339L25.1211 29.0338L27.5096 28.8618C27.5097 28.8617 27.5098 28.8617 27.5099 28.8617C28.4766 28.7922 29.3927 28.4033 30.1142 27.7561C30.8355 27.1092 31.3213 26.2409 31.4953 25.2878C32.172 21.5908 32.2132 17.8028 31.6206 14.0916ZM15.6444 11.0048V11.0046V11.0048Z" fill="#FAFAFA" stroke="#262626" stroke-width="3"/>
</svg>
