<svg width="80" height="80" viewBox="0 0 80 80" fill="none" xmlns="http://www.w3.org/2000/svg">
<path d="M60.6793 17.461L60.6799 17.461C62.6844 17.6355 64.5718 18.4797 66.0381 19.8574C67.5044 21.2352 68.4644 23.0664 68.7633 25.0562L68.7633 25.0563C70.2527 34.9627 70.2527 45.036 68.7635 54.9423C68.711 55.2888 68.6393 55.6282 68.5497 55.9593L54.6266 40.6411L54.6265 40.6409C54.1051 40.0674 53.4283 39.6578 52.6784 39.4618C51.9285 39.2658 51.1378 39.2919 50.4025 39.5369L50.4021 39.537L42.9039 42.0374L31.3245 29.0102C30.9623 28.6027 30.5207 28.2736 30.0267 28.043C29.5328 27.8124 28.9969 27.6852 28.452 27.6692C27.9071 27.6532 27.3646 27.7488 26.858 27.95C26.3514 28.1513 25.8914 28.4539 25.506 28.8393C25.5059 28.8394 25.5059 28.8395 25.5058 28.8395L10.2033 44.1421C9.94045 37.7619 10.2862 31.37 11.2366 25.0532L11.2367 25.0528C11.5356 23.0631 12.4955 21.2319 13.9618 19.8541C15.4281 18.4765 17.3152 17.6324 19.3195 17.4577C19.3197 17.4577 19.3199 17.4577 19.3201 17.4577L24.352 17.0245L24.8971 16.9775L24.9 16.9746C35.131 16.1164 45.417 16.1318 55.646 17.021C55.6461 17.021 55.6463 17.021 55.6464 17.021C55.6465 17.021 55.6466 17.021 55.6467 17.021L60.6793 17.461ZM47.0704 25.4038C45.8515 26.6228 45.1666 28.2761 45.1666 30C45.1666 31.7239 45.8515 33.3772 47.0704 34.5962C48.2894 35.8152 49.9427 36.5 51.6666 36.5C53.3905 36.5 55.0438 35.8152 56.2628 34.5962C57.4818 33.3772 58.1666 31.7239 58.1666 30C58.1666 28.2761 57.4818 26.6228 56.2628 25.4038C55.0438 24.1848 53.3905 23.5 51.6666 23.5C49.9427 23.5 48.2894 24.1848 47.0704 25.4038Z" fill="#2563EB" stroke="#262626" stroke-width="3"/>
<path d="M24.3533 62.9756L24.353 62.9756L19.3201 62.539C19.3199 62.539 19.3198 62.539 19.3196 62.5389C17.3153 62.3643 15.4281 61.5202 13.9619 60.1426C12.4963 58.7655 11.5366 56.9355 11.2371 54.9469C11.237 54.9459 11.2368 54.9449 11.2367 54.9438L11.1702 54.4878L28.1624 37.4956L38.6755 49.3232L38.6757 49.3234C39.1961 49.9086 39.8767 50.3281 40.6333 50.5301C41.3898 50.732 42.189 50.7075 42.9317 50.4594L50.4591 47.9503L63.1861 61.95C62.3853 62.2656 61.5415 62.4644 60.6807 62.5389L60.6803 62.5389L55.647 62.9756L55.6467 62.9756C45.2332 63.8815 34.7668 63.8815 24.3533 62.9756ZM28.6638 36.9942C28.6627 36.9953 28.6617 36.9963 28.6606 36.9973L28.6638 36.9942ZM50.8713 47.8129C50.8709 47.813 50.8706 47.8132 50.8703 47.8133L50.871 47.813L50.8713 47.8129Z" fill="#2563EB" stroke="#262626" stroke-width="3"/>
</svg>
