<svg width="512" height="512" viewBox="0 0 512 512" fill="none" xmlns="http://www.w3.org/2000/svg">
<rect width="512" height="512" rx="256" fill="#FAFAFA"/>
<path fill-rule="evenodd" clip-rule="evenodd" d="M196.85 164.225C236.213 160.803 275.799 160.803 315.163 164.225L334.038 165.875C342.813 166.639 351.075 170.334 357.495 176.366C363.914 182.398 368.116 190.414 369.425 199.125C375.094 236.83 375.094 275.17 369.425 312.875C368.925 316.175 368.025 319.338 366.775 322.3C365.95 324.263 363.4 324.563 361.95 322.988L306.688 262.188C305.465 260.843 303.879 259.883 302.122 259.424C300.364 258.965 298.511 259.026 296.788 259.6L265.15 270.15L219.263 218.525C218.414 217.57 217.379 216.799 216.221 216.258C215.063 215.718 213.807 215.42 212.53 215.382C211.253 215.345 209.982 215.569 208.794 216.04C207.607 216.512 206.528 217.221 205.625 218.125L144.2 279.55C143.783 279.979 143.249 280.277 142.665 280.407C142.081 280.537 141.472 280.494 140.912 280.283C140.352 280.072 139.866 279.702 139.513 279.219C139.16 278.736 138.956 278.16 138.925 277.563C137.447 251.357 138.67 225.068 142.575 199.113C143.884 190.402 148.086 182.385 154.505 176.354C160.925 170.322 169.187 166.627 177.963 165.863L196.838 164.238L196.85 164.225ZM281 218.5C281 213.527 282.975 208.758 286.492 205.242C290.008 201.725 294.777 199.75 299.75 199.75C304.723 199.75 309.492 201.725 313.008 205.242C316.525 208.758 318.5 213.527 318.5 218.5C318.5 223.473 316.525 228.242 313.008 231.758C309.492 235.275 304.723 237.25 299.75 237.25C294.777 237.25 290.008 235.275 286.492 231.758C282.975 228.242 281 223.473 281 218.5Z" fill="#262626"/>
<path d="M143.013 307.25C142.674 307.59 142.419 308.005 142.267 308.46C142.115 308.915 142.071 309.4 142.138 309.875L142.575 312.875C143.884 321.586 148.086 329.602 154.505 335.634C160.925 341.666 169.187 345.361 177.963 346.125L196.838 347.762C236.213 351.187 275.788 351.187 315.163 347.762L334.038 346.125C339.214 345.677 344.249 344.203 348.85 341.788C350.562 340.9 350.85 338.637 349.55 337.212L298.3 280.837C297.893 280.385 297.363 280.061 296.774 279.906C296.186 279.75 295.565 279.77 294.988 279.962L265.213 289.887C263.472 290.469 261.599 290.526 259.825 290.053C258.052 289.58 256.457 288.596 255.238 287.225L214.05 240.887C213.766 240.569 213.421 240.312 213.034 240.132C212.648 239.952 212.228 239.854 211.802 239.842C211.376 239.83 210.952 239.906 210.556 240.064C210.16 240.222 209.801 240.46 209.5 240.762L143.013 307.25Z" fill="#262626"/>
</svg>
